<?xml version="1.0" encoding="UTF-8"?>
<!--Generator: Apple Native CoreSVG 341-->
<!DOCTYPE svg
PUBLIC "-//W3C//DTD SVG 1.1//EN"
       "http://www.w3.org/Graphics/SVG/1.1/DTD/svg11.dtd">
<svg version="1.1" xmlns="http://www.w3.org/2000/svg" xmlns:xlink="http://www.w3.org/1999/xlink" viewBox="0 0 3300 2200">
 <!--glyph: "102104", point size: 100.0, font version: "21.1d1e1", template writer version: "138.0.0"-->
 <style>.defaults {-sfsymbols-draw-reverses-motion-groups:true}

.monochrome-0 {-sfsymbols-motion-group:1;-sfsymbols-indices:4;-sfsymbols-layer-tags:wifi.exclamationmark.circle.fill}
.monochrome-1 {opacity:0.0;-sfsymbols-clear-behind:true;-sfsymbols-motion-group:0;-sfsymbols-always-pulses:true;-sfsymbols-layer-tags:wifi.exclamationmark.circle.fill}

.multicolor-0:tintColor {-sfsymbols-motion-group:1;-sfsymbols-indices:4;-sfsymbols-layer-tags:wifi.exclamationmark.circle.fill}
.multicolor-1:white {-sfsymbols-motion-group:0;-sfsymbols-always-pulses:true;-sfsymbols-layer-tags:wifi.exclamationmark.circle.fill}

.hierarchical-0:tertiary {-sfsymbols-motion-group:1;-sfsymbols-indices:4;-sfsymbols-layer-tags:wifi.exclamationmark.circle.fill}
.hierarchical-1:primary {-sfsymbols-motion-group:0;-sfsymbols-always-pulses:true;-sfsymbols-layer-tags:wifi.exclamationmark.circle.fill}

.shapeGroupLayer-0 {-sfsymbols-fill-action:draw;-sfsymbols-indices:6 7}
.shapeGroupLayer-1 {-sfsymbols-fill-action:erase;-sfsymbols-indices:0 1}
.shapeGroupLayer-2 {-sfsymbols-fill-action:draw;-sfsymbols-indices:2 3}

.SFSymbolsPreviewWireframe {fill:none;opacity:1.0;stroke:black;stroke-width:0.5}
</style>
 <g id="Notes">
  <rect height="2200" id="artboard" style="fill:white;opacity:1" width="3300" x="0" y="0"/>
  <line style="fill:none;stroke:black;opacity:1;stroke-width:0.5;" x1="263" x2="3036" y1="292" y2="292"/>
  <text style="stroke:none;fill:black;font-family:sans-serif;font-size:13;font-weight:bold;" transform="matrix(1 0 0 1 263 322)">Weight/Scale Variations</text>
  <text style="stroke:none;fill:black;font-family:sans-serif;font-size:13;text-anchor:middle;" transform="matrix(1 0 0 1 559.711 322)">Ultralight</text>
  <text style="stroke:none;fill:black;font-family:sans-serif;font-size:13;text-anchor:middle;" transform="matrix(1 0 0 1 856.422 322)">Thin</text>
  <text style="stroke:none;fill:black;font-family:sans-serif;font-size:13;text-anchor:middle;" transform="matrix(1 0 0 1 1153.13 322)">Light</text>
  <text style="stroke:none;fill:black;font-family:sans-serif;font-size:13;text-anchor:middle;" transform="matrix(1 0 0 1 1449.84 322)">Regular</text>
  <text style="stroke:none;fill:black;font-family:sans-serif;font-size:13;text-anchor:middle;" transform="matrix(1 0 0 1 1746.56 322)">Medium</text>
  <text style="stroke:none;fill:black;font-family:sans-serif;font-size:13;text-anchor:middle;" transform="matrix(1 0 0 1 2043.27 322)">Semibold</text>
  <text style="stroke:none;fill:black;font-family:sans-serif;font-size:13;text-anchor:middle;" transform="matrix(1 0 0 1 2339.98 322)">Bold</text>
  <text style="stroke:none;fill:black;font-family:sans-serif;font-size:13;text-anchor:middle;" transform="matrix(1 0 0 1 2636.69 322)">Heavy</text>
  <text style="stroke:none;fill:black;font-family:sans-serif;font-size:13;text-anchor:middle;" transform="matrix(1 0 0 1 2933.4 322)">Black</text>
  <line style="fill:none;stroke:black;opacity:1;stroke-width:0.5;" x1="263" x2="3036" y1="1903" y2="1903"/>
  <g transform="matrix(0.2 0 0 0.2 263 1933)">
   <path d="m46.2402 4.15039c21.7773 0 39.4531-17.627 39.4531-39.4043s-17.6758-39.4043-39.4531-39.4043c-21.7285 0-39.4043 17.627-39.4043 39.4043s17.6758 39.4043 39.4043 39.4043Zm0-7.42188c-17.6758 0-31.9336-14.3066-31.9336-31.9824s14.2578-31.9824 31.9336-31.9824 31.9824 14.3066 31.9824 31.9824-14.3066 31.9824-31.9824 31.9824Zm3.61328-17.7734v-28.4668c0-2.24609-1.46484-3.75977-3.71094-3.75977-2.14844 0-3.61328 1.51367-3.61328 3.75977v28.4668c0 2.19727 1.46484 3.71094 3.61328 3.71094 2.24609 0 3.71094-1.51367 3.71094-3.71094Zm-17.8223-10.5957h28.418c2.19727 0 3.71094-1.46484 3.71094-3.61328 0-2.19727-1.51367-3.71094-3.71094-3.71094h-28.418c-2.24609 0-3.75977 1.51367-3.75977 3.71094 0 2.14844 1.51367 3.61328 3.75977 3.61328Z"/>
  </g>
  <g transform="matrix(0.2 0 0 0.2 281.506 1933)">
   <path d="m58.5449 14.5508c27.4902 0 49.8047-22.3145 49.8047-49.8047s-22.3145-49.8047-49.8047-49.8047-49.8047 22.3145-49.8047 49.8047 22.3145 49.8047 49.8047 49.8047Zm0-8.30078c-22.9492 0-41.5039-18.5547-41.5039-41.5039s18.5547-41.5039 41.5039-41.5039 41.5039 18.5547 41.5039 41.5039-18.5547 41.5039-41.5039 41.5039Zm4.05273-23.0957v-36.9141c0-2.49023-1.70898-4.19922-4.15039-4.19922-2.39258 0-4.05273 1.70898-4.05273 4.19922v36.9141c0 2.44141 1.66016 4.15039 4.05273 4.15039 2.44141 0 4.15039-1.66016 4.15039-4.15039Zm-22.5586-14.4043h36.9629c2.44141 0 4.15039-1.61133 4.15039-4.00391 0-2.44141-1.70898-4.15039-4.15039-4.15039h-36.9629c-2.49023 0-4.15039 1.70898-4.15039 4.15039 0 2.39258 1.66016 4.00391 4.15039 4.00391Z"/>
  </g>
  <g transform="matrix(0.2 0 0 0.2 304.924 1933)">
   <path d="m74.8535 28.3203c35.1074 0 63.623-28.4668 63.623-63.5742s-28.5156-63.623-63.623-63.623-63.5742 28.5156-63.5742 63.623 28.4668 63.5742 63.5742 63.5742Zm0-9.08203c-30.127 0-54.4922-24.3652-54.4922-54.4922s24.3652-54.4922 54.4922-54.4922 54.4922 24.3652 54.4922 54.4922-24.3652 54.4922-54.4922 54.4922Zm4.44336-30.3223v-48.4863c0-2.73438-1.85547-4.63867-4.54102-4.63867-2.58789 0-4.44336 1.9043-4.44336 4.63867v48.4863c0 2.68555 1.85547 4.58984 4.44336 4.58984 2.68555 0 4.54102-1.85547 4.54102-4.58984Zm-28.7109-19.7754h48.4863c2.68555 0 4.58984-1.80664 4.58984-4.39453 0-2.73438-1.85547-4.58984-4.58984-4.58984h-48.4863c-2.73438 0-4.58984 1.85547-4.58984 4.58984 0 2.58789 1.85547 4.39453 4.58984 4.39453Z"/>
  </g>
  <text style="stroke:none;fill:black;font-family:sans-serif;font-size:13;font-weight:bold;" transform="matrix(1 0 0 1 263 1953)">Design Variations</text>
  <text style="stroke:none;fill:black;font-family:sans-serif;font-size:13;" transform="matrix(1 0 0 1 263 1971)">Symbols are supported in up to nine weights and three scales.</text>
  <text style="stroke:none;fill:black;font-family:sans-serif;font-size:13;" transform="matrix(1 0 0 1 263 1989)">For optimal layout with text and other symbols, vertically align</text>
  <text style="stroke:none;fill:black;font-family:sans-serif;font-size:13;" transform="matrix(1 0 0 1 263 2007)">symbols with the adjacent text.</text>
  <line style="fill:none;stroke:#00AEEF;stroke-width:0.5;opacity:1.0;" x1="776" x2="776" y1="1919" y2="1933"/>
  <g transform="matrix(0.2 0 0 0.2 776 1933)">
   <path d="m16.5527 0.78125c2.58789 0 3.85742-0.976562 4.78516-3.71094l20.5566-57.5195h0.244141l20.6055 57.5195c0.927734 2.73438 2.19727 3.71094 4.73633 3.71094 2.58789 0 4.24805-1.5625 4.24805-4.00391 0-0.830078-0.146484-1.61133-0.537109-2.63672l-22.9004-60.9863c-1.12305-2.97852-3.125-4.49219-6.25-4.49219-3.02734 0-5.07812 1.46484-6.15234 4.44336l-22.9004 61.084c-0.390625 1.02539-0.537109 1.80664-0.537109 2.63672 0 2.44141 1.5625 3.95508 4.10156 3.95508Zm10.2051-20.9473h30.6641c2.00195 0 3.66211-1.66016 3.66211-3.66211 0-2.05078-1.66016-3.66211-3.66211-3.66211h-30.6641c-2.00195 0-3.66211 1.61133-3.66211 3.66211 0 2.00195 1.66016 3.66211 3.66211 3.66211Z"/>
  </g>
  <line style="fill:none;stroke:#00AEEF;stroke-width:0.5;opacity:1.0;" x1="792.836" x2="792.836" y1="1919" y2="1933"/>
  <text style="stroke:none;fill:black;font-family:sans-serif;font-size:13;font-weight:bold;" transform="matrix(1 0 0 1 776 1953)">Margins</text>
  <text style="stroke:none;fill:black;font-family:sans-serif;font-size:13;" transform="matrix(1 0 0 1 776 1971)">Leading and trailing margins on the left and right side of each symbol</text>
  <text style="stroke:none;fill:black;font-family:sans-serif;font-size:13;" transform="matrix(1 0 0 1 776 1989)">can be adjusted by modifying the x-location of the margin guidelines.</text>
  <text style="stroke:none;fill:black;font-family:sans-serif;font-size:13;" transform="matrix(1 0 0 1 776 2007)">Modifications are automatically applied proportionally to all</text>
  <text style="stroke:none;fill:black;font-family:sans-serif;font-size:13;" transform="matrix(1 0 0 1 776 2025)">scales and weights.</text>
  <g transform="matrix(0.2 0 0 0.2 1289 1933)">
   <path d="m14.209 13.1348 7.86133 7.86133c4.29688 4.39453 9.32617 4.10156 13.8672-1.02539l60.6934-68.2129-4.88281-4.88281-60.2539 67.6758c-1.80664 1.95312-3.4668 2.44141-5.81055 0.0976562l-5.17578-5.12695c-2.29492-2.29492-1.80664-3.95508 0.195312-5.81055l67.4805-62.1582-4.88281-4.83398-68.0664 62.5977c-4.98047 4.58984-5.32227 9.47266-1.02539 13.8184Zm44.873-97.4609c-2.05078 2.00195-2.24609 4.88281-1.07422 6.78711 1.12305 1.80664 3.4668 3.02734 6.5918 2.24609 5.85938-1.66016 12.5977-2.39258 18.8965 0.927734l-2.68555 7.12891c-1.61133 4.00391-0.732422 6.88477 1.70898 9.42383l10.2539 10.3027c2.34375 2.39258 4.54102 2.44141 7.08008 1.95312l4.44336-0.732422 2.58789 2.53906-0.195312 2.24609c-0.0976562 2.29492 0.537109 4.29688 2.7832 6.49414l3.36914 3.32031c2.29492 2.29492 5.51758 2.49023 7.8125 0.195312l12.9883-13.0371c2.29492-2.34375 2.14844-5.37109-0.195312-7.66602l-3.41797-3.41797c-2.19727-2.19727-4.05273-3.02734-6.34766-2.88086l-2.34375 0.244141-2.44141-2.44141 1.02539-4.6875c0.634766-2.73438-0.244141-4.98047-2.88086-7.61719l-11.2793-11.1816c-12.9395-12.8418-35.5957-11.0352-46.6797-0.146484Zm7.08008 2.05078c8.78906-6.39648 25.9766-5.66406 33.6914 1.95312l12.3047 12.207c1.02539 1.02539 1.2207 1.80664 0.927734 3.32031l-1.46484 6.64062 6.73828 6.68945 4.39453-0.244141c1.12305-0.0488281 1.51367 0.0488281 2.34375 0.878906l2.53906 2.49023-10.8398 10.8398-2.49023-2.49023c-0.830078-0.878906-0.976562-1.2207-0.927734-2.39258l0.292969-4.3457-6.68945-6.73828-6.83594 1.17188c-1.41602 0.292969-2.05078 0.195312-3.17383-0.878906l-8.93555-8.88672c-1.07422-1.02539-1.17188-1.70898-0.488281-3.36914l4.58984-11.4746c-6.10352-6.34766-17.041-7.51953-25.5859-4.58984-0.683594 0.244141-0.927734-0.390625-0.390625-0.78125Z"/>
  </g>
  <text style="stroke:none;fill:black;font-family:sans-serif;font-size:13;font-weight:bold;" transform="matrix(1 0 0 1 1289 1953)">Exporting</text>
  <text style="stroke:none;fill:black;font-family:sans-serif;font-size:13;" transform="matrix(1 0 0 1 1289 1971)">Symbols should be outlined when exporting to ensure the</text>
  <text style="stroke:none;fill:black;font-family:sans-serif;font-size:13;" transform="matrix(1 0 0 1 1289 1989)">design is preserved when submitting to Xcode.</text>
  <text id="template-version" style="stroke:none;fill:black;font-family:sans-serif;font-size:13;text-anchor:end;" transform="matrix(1 0 0 1 3036 1933)">Template v.7.0</text>
  <text style="stroke:none;fill:black;font-family:sans-serif;font-size:13;text-anchor:end;" transform="matrix(1 0 0 1 3036 1951)">Requires Xcode 26 or greater</text>
  <text id="descriptive-name" style="stroke:none;fill:black;font-family:sans-serif;font-size:13;text-anchor:end;" transform="matrix(1 0 0 1 3036 1969)">Generated from wifi.exclamationmark.circle.fill</text>
  <text style="stroke:none;fill:black;font-family:sans-serif;font-size:13;text-anchor:end;" transform="matrix(1 0 0 1 3036 1987)">Typeset at 100.0 points</text>
  <text style="stroke:none;fill:black;font-family:sans-serif;font-size:13;" transform="matrix(1 0 0 1 263 726)">Small</text>
  <text style="stroke:none;fill:black;font-family:sans-serif;font-size:13;" transform="matrix(1 0 0 1 263 1156)">Medium</text>
  <text style="stroke:none;fill:black;font-family:sans-serif;font-size:13;" transform="matrix(1 0 0 1 263 1586)">Large</text>
 </g>
 <g id="Guides">
  <g id="H-reference" style="fill:#27AAE1;stroke:none;" transform="matrix(1 0 0 1 339 696)">
   <path d="M0.993654 0L3.63775 0L29.3281-67.1323L30.0303-67.1323L30.0303-70.459L28.1226-70.459ZM11.6885-24.4799L46.9815-24.4799L46.2315-26.7285L12.4385-26.7285ZM55.1196 0L57.7637 0L30.6382-70.459L29.4326-70.459L29.4326-67.1323Z"/>
  </g>
  <line id="Baseline-S" style="fill:none;stroke:#27AAE1;opacity:1;stroke-width:0.5;" x1="263" x2="3036" y1="696" y2="696"/>
  <line id="Capline-S" style="fill:none;stroke:#27AAE1;opacity:1;stroke-width:0.5;" x1="263" x2="3036" y1="625.541" y2="625.541"/>
  <g id="H-reference" style="fill:#27AAE1;stroke:none;" transform="matrix(1 0 0 1 339 1126)">
   <path d="M0.993654 0L3.63775 0L29.3281-67.1323L30.0303-67.1323L30.0303-70.459L28.1226-70.459ZM11.6885-24.4799L46.9815-24.4799L46.2315-26.7285L12.4385-26.7285ZM55.1196 0L57.7637 0L30.6382-70.459L29.4326-70.459L29.4326-67.1323Z"/>
  </g>
  <line id="Baseline-M" style="fill:none;stroke:#27AAE1;opacity:1;stroke-width:0.5;" x1="263" x2="3036" y1="1126" y2="1126"/>
  <line id="Capline-M" style="fill:none;stroke:#27AAE1;opacity:1;stroke-width:0.5;" x1="263" x2="3036" y1="1055.54" y2="1055.54"/>
  <g id="H-reference" style="fill:#27AAE1;stroke:none;" transform="matrix(1 0 0 1 339 1556)">
   <path d="M0.993654 0L3.63775 0L29.3281-67.1323L30.0303-67.1323L30.0303-70.459L28.1226-70.459ZM11.6885-24.4799L46.9815-24.4799L46.2315-26.7285L12.4385-26.7285ZM55.1196 0L57.7637 0L30.6382-70.459L29.4326-70.459L29.4326-67.1323Z"/>
  </g>
  <line id="Baseline-L" style="fill:none;stroke:#27AAE1;opacity:1;stroke-width:0.5;" x1="263" x2="3036" y1="1556" y2="1556"/>
  <line id="Capline-L" style="fill:none;stroke:#27AAE1;opacity:1;stroke-width:0.5;" x1="263" x2="3036" y1="1485.54" y2="1485.54"/>
  <line id="right-margin-Black-S" style="fill:none;stroke:#00AEEF;stroke-width:0.5;opacity:1.0;" x1="2982.23" x2="2982.23" y1="600.785" y2="720.121"/>
  <line id="left-margin-Black-S" style="fill:none;stroke:#00AEEF;stroke-width:0.5;opacity:1.0;" x1="2884.57" x2="2884.57" y1="600.785" y2="720.121"/>
  <line id="right-margin-Regular-S" style="fill:none;stroke:#00AEEF;stroke-width:0.5;opacity:1.0;" x1="1496.11" x2="1496.11" y1="600.785" y2="720.121"/>
  <line id="left-margin-Regular-S" style="fill:none;stroke:#00AEEF;stroke-width:0.5;opacity:1.0;" x1="1403.58" x2="1403.58" y1="600.785" y2="720.121"/>
  <line id="right-margin-Ultralight-S" style="fill:none;stroke:#00AEEF;stroke-width:0.5;opacity:1.0;" x1="603.773" x2="603.773" y1="600.785" y2="720.121"/>
  <line id="left-margin-Ultralight-S" style="fill:none;stroke:#00AEEF;stroke-width:0.5;opacity:1.0;" x1="515.649" x2="515.649" y1="600.785" y2="720.121"/>
 </g>
 <g id="Symbols">
  <g id="Black-S" transform="matrix(1 0 0 1 2884.57 696)">
   <path class="SFSymbolsPreviewWireframe" d="M48.8281-26.2695C44.5312-26.2695 41.2109-28.8574 41.0156-34.1797C40.918-37.0117 40.4297-47.4609 40.4297-49.2188C40.4297-53.8086 43.75-57.666 48.8281-57.666C53.8086-57.666 57.2266-53.9062 57.2266-49.2188C57.2266-47.4121 56.7383-37.0117 56.6406-34.1797C56.4453-28.8574 53.125-26.2695 48.8281-26.2695ZM48.8281-13.7207C44.043-13.7207 40.1855-17.4316 40.1855-22.0703C40.1855-26.709 44.043-30.4199 48.8281-30.4199C53.5645-30.4199 57.4707-26.709 57.4707-22.0703C57.4707-17.4316 53.5645-13.7207 48.8281-13.7207ZM48.8281-29.5898C51.8066-29.5898 53.2715-31.25 53.3691-34.3262C53.4668-37.1094 53.9551-47.5098 53.9551-49.2188C53.9551-52.002 52.0996-54.3457 48.8281-54.3457C45.6055-54.3457 43.7012-52.002 43.7012-49.2188C43.7012-47.5098 44.1895-37.1094 44.2871-34.3262C44.3848-31.25 45.8496-29.5898 48.8281-29.5898ZM48.8281-17.041C51.8066-17.041 54.1504-19.2871 54.1504-22.0703C54.1504-24.8535 51.8066-27.0996 48.8281-27.0996C45.8496-27.0996 43.457-24.8535 43.457-22.0703C43.457-19.2871 45.8496-17.041 48.8281-17.041ZM48.8281 6.78711C72.0215 6.78711 90.8203-12.0117 90.8203-35.2051C90.8203-58.3984 72.0215-77.1973 48.8281-77.1973C25.6348-77.1973 6.83594-58.3984 6.83594-35.2051C6.83594-12.0117 25.6348 6.78711 48.8281 6.78711ZM48.8281-17.1387C48.0957-17.1387 47.4609-17.5293 46.5332-18.4082L41.5039-23.2422C40.8203-23.877 40.6738-24.8047 41.1133-25.4395C42.9199-27.832 45.8984-29.2969 48.8281-29.2969C51.7578-29.2969 54.541-27.9785 56.3965-25.6836C56.9824-25 56.9336-23.9746 56.25-23.2422L51.2207-18.4082C50.293-17.5293 49.5605-17.1387 48.8281-17.1387ZM36.2793-28.9551L33.0078-31.9824C32.2754-32.6172 32.2266-33.5938 32.8125-34.2773C36.3281-38.3301 42.4805-40.8691 48.8281-40.8691C55.1758-40.8691 61.3281-38.3301 64.8438-34.2773C65.4297-33.5938 65.3809-32.6172 64.6484-31.9824L61.377-28.9551C60.5957-28.2227 59.4727-28.2227 58.7402-29.0527C56.1523-31.6406 52.4414-33.2031 48.8281-33.2031C45.2148-33.2031 41.5527-31.6406 39.0137-29.0527C38.2324-28.2715 37.1094-28.2227 36.2793-28.9551ZM27.6855-37.0605L24.8047-40.0391C24.1699-40.7227 24.1211-41.6992 24.707-42.3828C29.9316-48.9258 39.4043-53.1738 48.8281-53.1738C58.252-53.1738 67.7246-48.9258 72.9492-42.3828C73.5352-41.6992 73.4863-40.7227 72.8516-40.0391L69.9707-37.0605C69.1406-36.3281 68.0176-36.3281 67.2363-37.0605C62.4023-42.2363 56.0547-44.9707 48.8281-44.9707C41.6992-44.9707 35.4004-42.2852 30.4688-37.1094C29.6387-36.2793 28.4668-36.2793 27.6855-37.0605Z"/>
  </g>
  <g id="Regular-S" transform="matrix(1 0 0 1 1403.58 696)">
   <path class="SFSymbolsPreviewWireframe" d="M46.2402-24.6582C43.1152-24.6582 40.7227-26.9531 40.6738-30.0781C40.5273-37.793 40.5273-45.6055 40.3809-53.2715C40.3809-56.6895 43.1152-59.0332 46.1914-59.0332C49.2676-59.0332 52.0508-56.6895 52.0508-53.2715C51.9531-45.6055 51.8555-37.793 51.7578-30.0781C51.7578-26.9531 49.3652-24.6582 46.2402-24.6582ZM46.1914-13.4766C42.4316-13.4766 39.4531-16.5039 39.4531-20.2637C39.4531-24.0723 42.4316-27.0996 46.1914-27.0996C50.0488-27.0996 53.0273-24.0723 53.0273-20.2637C53.0273-16.5039 50.0488-13.4766 46.1914-13.4766ZM46.2402-27.9297C47.5586-27.9297 48.4375-28.8086 48.4863-30.127C48.584-37.793 48.6328-45.6055 48.7793-53.2715C48.7793-54.7852 47.5586-55.7129 46.1914-55.7129C44.873-55.7129 43.6523-54.7852 43.6523-53.2715C43.7988-45.6055 43.8965-37.793 43.9941-30.127C44.043-28.8086 44.9219-27.9297 46.2402-27.9297ZM46.1914-16.748C48.1934-16.748 49.8047-18.3594 49.8047-20.2637C49.8047-22.2656 48.1934-23.8281 46.1914-23.8281C44.2871-23.8281 42.627-22.2656 42.627-20.2637C42.627-18.3594 44.2871-16.748 46.1914-16.748ZM46.2402 4.19922C68.0176 4.19922 85.6934-13.4766 85.6934-35.2051C85.6934-56.9336 68.0176-74.6094 46.2402-74.6094C24.5117-74.6094 6.83594-56.9336 6.83594-35.2051C6.83594-13.4766 24.5117 4.19922 46.2402 4.19922ZM46.2891-16.8945C45.6543-16.8945 45.166-17.1387 44.2383-18.0664L39.0137-23.1445C38.5254-23.584 38.3789-24.2188 38.7207-24.707C40.4785-27.0996 43.3594-28.5645 46.2891-28.5645C49.1699-28.5645 52.1484-27.1484 53.8086-24.9512C54.1992-24.4141 54.1016-23.584 53.6621-23.1445L48.4375-18.0664C47.4609-17.0898 46.9727-16.8945 46.2891-16.8945ZM33.4961-28.6621L30.127-32.0312C29.5898-32.6172 29.541-33.3008 29.9805-33.8379C33.6426-38.2324 39.8926-41.0156 46.2891-41.0156C52.7344-41.0156 58.9844-38.2324 62.5977-33.8379C63.0859-33.3496 63.0371-32.5684 62.5-32.0312L59.1309-28.6621C58.4473-27.9785 57.666-27.9297 56.9824-28.6621C54.2969-31.6406 50.1953-33.4961 46.2891-33.4473C42.3828-33.4961 38.3301-31.6406 35.7422-28.7109C35.0098-27.8809 34.1309-27.9785 33.4961-28.6621ZM24.6094-37.5488L21.582-40.625C21.0938-41.1621 20.9961-41.8457 21.4844-42.4805C26.8066-49.0723 36.6211-53.418 46.2891-53.418C56.0059-53.418 65.7715-49.0723 71.1426-42.4805C71.6309-41.8457 71.5332-41.1621 70.9961-40.625L68.0176-37.5488C67.3828-36.9629 66.5039-36.9141 65.918-37.5488C60.791-43.0176 53.9551-45.8984 46.2891-45.8984C38.623-45.8984 31.8359-43.0176 26.8066-37.5977C26.123-36.8652 25.1465-36.8652 24.6094-37.5488Z"/>
  </g>
  <g id="Ultralight-S" transform="matrix(1 0 0 1 515.649 696)">
   <path class="SFSymbolsPreviewWireframe" d="M44.0606-22.6148C41.7984-22.6148 40.1323-24.3648 40.1289-26.5816C40.1187-36.3399 40.1187-46.105 40.1084-55.8598C40.1084-58.1426 41.7984-59.8052 44.0571-59.8052C46.3159-59.8052 48.0093-58.1426 48.0093-55.8598C48.0025-46.105 47.9956-36.3399 47.9888-26.5816C47.9888-24.3648 46.2774-22.6148 44.0606-22.6148ZM44.0571-14.9751C40.8877-14.9751 38.3179-17.5029 38.3179-20.6724C38.3179-23.8452 40.8877-26.4185 44.0571-26.4185C47.2334-26.4185 49.7578-23.8452 49.7578-20.6724C49.7578-17.5029 47.2334-14.9751 44.0571-14.9751ZM44.0606-25.523C44.6978-25.523 45.0772-26.0386 45.0806-26.585C45.0874-36.3399 45.0908-46.105 45.1011-55.8598C45.1011-56.5561 44.6524-56.939 44.0571-56.939C43.4653-56.939 43.0166-56.5561 43.0166-55.8598C43.0269-46.105 43.0337-36.3399 43.0405-26.585C43.044-26.0386 43.4234-25.523 44.0606-25.523ZM44.0571-17.8833C45.605-17.8833 46.8985-19.1313 46.8985-20.6724C46.8985-22.2202 45.605-23.5103 44.0571-23.5103C42.5161-23.5103 41.2192-22.2656 41.2192-20.6724C41.2192-19.1313 42.5161-17.8833 44.0571-17.8833ZM44.0606 2.01955C64.521 2.01955 81.2886-14.748 81.2886-35.2051C81.2886-55.6621 64.521-72.4297 44.0606-72.4297C23.6035-72.4297 6.83594-55.6621 6.83594-35.2051C6.83594-14.748 23.6035 2.01955 44.0606 2.01955ZM44.064-16.7129C43.7017-16.7129 43.395-16.9116 42.6035-17.6577L37.2427-22.8267C36.936-23.0845 36.9258-23.356 37.1768-23.7534C38.4351-25.4194 41.2251-26.8843 44.064-26.8843C46.8994-26.8843 49.6963-25.4229 50.9478-23.7251C51.2022-23.3242 51.1499-23.0845 50.8921-22.8267L45.5313-17.6577C44.7363-16.9082 44.4297-16.7129 44.064-16.7129ZM30.8623-29.207L27.7656-32.3037C27.4556-32.6172 27.4522-33.0283 27.71-33.3384C31.0542-37.4605 37.4859-40.2891 44.064-40.2891C50.6455-40.2891 57.0772-37.5059 60.418-33.3384C60.7246-33.0317 60.6758-32.6138 60.3657-32.3037L57.2691-29.207C56.9033-28.8413 56.44-28.8833 56.0742-29.2978C53.1616-32.4126 48.5151-34.4951 44.064-34.4463C39.6128-34.4951 34.9243-32.4126 32.064-29.3013C31.6494-28.8799 31.2246-28.8413 30.8623-29.207ZM21.2945-38.8203L18.6758-41.4878C18.3692-41.8433 18.3169-42.2544 18.6236-42.6167C23.9004-49.1177 34.0781-53.5996 44.064-53.5996C54.0532-53.5996 64.1821-49.0723 69.5078-42.6167C69.8145-42.2544 69.8076-41.8433 69.4522-41.4878L66.7915-38.8203C66.4746-38.416 65.959-38.458 65.6001-38.8657C60.2007-44.7886 52.502-47.8511 44.064-47.8511C35.626-47.8511 28.0669-44.6523 22.5381-38.8691C22.1724-38.4546 21.6499-38.4092 21.2945-38.8203Z"/>
  </g>
 </g>
 <g id="LayerTree">
  <g class="monochrome-0 multicolor-0:tintColor hierarchical-0:tertiary"/>
  <g class="monochrome-1 multicolor-1:white hierarchical-1:primary">
   <g class="shapeGroupLayer-0"/>
   <g class="shapeGroupLayer-1"/>
   <g class="shapeGroupLayer-2"/>
  </g>
 </g>
</svg>
