<?xml version="1.0" encoding="UTF-8"?>
<svg id="_レイヤー_2" data-name="レイヤー_2" xmlns="http://www.w3.org/2000/svg" version="1.1" viewBox="0 0 24 24">
  <!-- Generator: Adobe Illustrator 29.8.5, SVG Export Plug-In . SVG Version: 2.1.1 Build 2)  -->
  <defs>
    <style>
      .st0 {
        fill: #1c1c1e;
      }
    </style>
  </defs>
  <path class="st0" d="M12,23.88C5.45,23.88.12,18.55.12,12S5.45.12,12,.12s11.88,5.33,11.88,11.88-5.33,11.88-11.88,11.88ZM12,1.42C6.17,1.42,1.42,6.17,1.42,12s4.75,10.58,10.58,10.58,10.58-4.75,10.58-10.58S17.83,1.42,12,1.42Z"/>
  <circle class="st0" cx="12.13" cy="5.91" r="1.47"/>
  <path class="st0" d="M12.26,13.93c.06,0,.13.02.18.06.13.1.27.31.29.42.03.14.98,4.37,1.1,4.69s.5.64.99.53.35-.81.31-.94-1.16-4.55-1.22-5.18-.1-1.71-.15-2.9.84-1.19,1.12-1.25,2.67-.32,2.67-.32c0,0,.64-.18.62-.75s-.7-.54-.7-.54c0,0-.95.13-1.7.21s-3.63.27-3.63.27h0s-2.89-.19-3.63-.27-1.7-.21-1.7-.21c0,0-.67-.03-.7.54s.62.75.62.75c0,0,2.38.26,2.67.32s1.17.06,1.12,1.25-.09,2.27-.15,2.9-1.19,5.05-1.22,5.18-.18.82.31.94.88-.21.99-.53,1.07-4.55,1.1-4.69c.02-.11.16-.32.29-.42.05-.04.12-.06.18-.06h.26Z"/>
</svg>